<svg width="400" height="400" viewBox="0 0 400 400" fill="none" xmlns="http://www.w3.org/2000/svg">
  <rect width="400" height="400" rx="20" fill="#F8FAFC"/>
  <rect x="50" y="40" width="300" height="320" rx="10" fill="white" stroke="#E2E8F0" stroke-width="2"/>
  <circle cx="200" cy="90" r="30" fill="#EFF6FF"/>
  <rect x="170" y="140" width="60" height="6" rx="3" fill="#6366F1"/>
  <rect x="150" y="160" width="100" height="4" rx="2" fill="#CBD5E1"/>
  <rect x="80" y="200" width="240" height="4" rx="2" fill="#CBD5E1"/>
  <rect x="80" y="216" width="240" height="4" rx="2" fill="#CBD5E1"/>
  <rect x="80" y="232" width="240" height="4" rx="2" fill="#CBD5E1"/>
  <rect x="80" y="248" width="180" height="4" rx="2" fill="#CBD5E1"/>
  <rect x="80" y="280" width="240" height="4" rx="2" fill="#CBD5E1"/>
  <rect x="80" y="296" width="240" height="4" rx="2" fill="#CBD5E1"/>
  <rect x="80" y="312" width="180" height="4" rx="2" fill="#CBD5E1"/>
  <rect x="80" y="328" width="120" height="4" rx="2" fill="#CBD5E1"/>
  
  <rect x="250" y="220" width="100" height="100" rx="10" fill="#EFF6FF" stroke="#6366F1" stroke-width="2" stroke-dasharray="5 5"/>
  <path d="M300 250L285 265L275 255" stroke="#6366F1" stroke-width="4" stroke-linecap="round" stroke-linejoin="round"/>
  <rect x="250" y="70" width="100" height="100" fill="#EFF6FF" stroke="#6366F1" stroke-width="2"/>
</svg>